<?xml version="1.0" encoding="utf-8"?><svg xmlns="http://www.w3.org/2000/svg" xmlns:xlink="http://www.w3.org/1999/xlink" width="195" height="114.46" viewBox="0 0 195 114.46"><defs><style>.a{fill:url(#a);}.b{fill:url(#b);}.c{fill:url(#c);}.d{fill:url(#d);}.e{fill:url(#e);}.f{fill:url(#f);}.g{fill:url(#g);}.h{fill:url(#h);}.i{fill:url(#i);}.j{fill:url(#j);}.k{fill:url(#k);}.l{fill:url(#l);}.m{fill:url(#m);}.n{fill:url(#n);}.o{fill:url(#o);}.p{fill:url(#p);}.q{fill:url(#q);}.r{fill:url(#r);}.s{fill:#be202e;}</style><radialGradient id="a" cx="107.85" cy="1388.65" r="5.14" gradientTransform="matrix(12.77, -0.2, -0.17, -11.35, -1131.7, 15785.2)" gradientUnits="userSpaceOnUse"><stop offset="0.06" stop-color="#fff"/><stop offset="1" stop-color="#be202e"/></radialGradient><radialGradient id="b" cx="64.83" cy="1487.69" r="13.41" gradientTransform="matrix(5.49, -0.18, -0.16, -4.89, -283.89, 7288.72)" gradientUnits="userSpaceOnUse"><stop offset="0.06" stop-color="#fff"/><stop offset="0.63" stop-color="#d27665"/><stop offset="1" stop-color="#be202e"/></radialGradient><radialGradient id="c" cx="106.17" cy="1393.23" r="5.44" gradientTransform="matrix(12.16, -0.4, -0.35, -10.81, -793.59, 15108.82)" xlink:href="#b"/><radialGradient id="d" cx="142.61" cy="1334.72" r="1.18" gradientTransform="matrix(56.29, -1.86, -1.69, -50.04, -5560.99, 67051.04)" gradientUnits="userSpaceOnUse"><stop offset="0" stop-color="#fff"/><stop offset="0.09" stop-color="#fdf7f3"/><stop offset="0.22" stop-color="#f5e3dd"/><stop offset="0.36" stop-color="#eccac0"/><stop offset="0.52" stop-color="#e2a899"/><stop offset="0.69" stop-color="#d68170"/><stop offset="0.86" stop-color="#ca5449"/><stop offset="1" stop-color="#be202e"/></radialGradient><radialGradient id="e" cx="140.76" cy="1336.97" r="1.35" gradientTransform="matrix(49.12, -1.62, -1.4, -43.71, -4829.35, 58667.89)" xlink:href="#d"/><radialGradient id="f" cx="138.71" cy="1339.61" r="1.54" gradientTransform="matrix(42.9, -1.42, -1.27, -38.15, -4037.61, 51300.29)" xlink:href="#d"/><radialGradient id="g" cx="133.8" cy="1345.49" r="1.99" gradientTransform="matrix(33.1, -1.09, -1.02, -29.49, -2831.06, 39817.95)" xlink:href="#d"/><radialGradient id="h" cx="111.13" cy="1374.7" r="4.27" gradientTransform="matrix(15.48, -0.51, -0.43, -13.78, -910.55, 18995.29)" xlink:href="#d"/><radialGradient id="i" cx="106.99" cy="1376.85" r="4.49" gradientTransform="matrix(14.72, -0.49, -0.41, -13.1, -784.99, 18080.05)" xlink:href="#d"/><radialGradient id="j" cx="90.54" cy="1397.58" r="6.03" gradientTransform="matrix(10.95, -0.36, -0.32, -9.73, -309.09, 13620.93)" xlink:href="#d"/><radialGradient id="k" cx="96.39" cy="1392.58" r="5.63" gradientTransform="matrix(11.75, -0.39, -0.36, -10.46, -399.63, 14591.92)" xlink:href="#d"/><radialGradient id="l" cx="68.53" cy="1426.09" r="8.17" gradientTransform="matrix(8.09, -0.27, -0.26, -7.2, 53.07, 10276.66)" xlink:href="#d"/><radialGradient id="m" cx="90.52" cy="1399.23" r="6.11" gradientTransform="matrix(10.82, -0.36, -0.31, -9.67, -324.3, 13560.76)" xlink:href="#d"/><radialGradient id="n" cx="69.13" cy="1426.5" r="8.11" gradientTransform="matrix(8.16, -0.27, -0.25, -7.25, 36.09, 10352.37)" xlink:href="#d"/><radialGradient id="o" cx="109.76" cy="1379.62" r="4.5" gradientTransform="matrix(14.7, -0.49, -0.44, -13.08, -854.67, 18098.26)" xlink:href="#d"/><radialGradient id="p" cx="102.7" cy="1387.33" r="5.03" gradientTransform="matrix(13.15, -0.43, -0.37, -11.69, -622.18, 16261.06)" xlink:href="#d"/><radialGradient id="q" cx="124.5" cy="1361.76" r="3.05" gradientTransform="matrix(21.7, -0.72, -0.64, -19.31, -1674.48, 26377.65)" xlink:href="#d"/><radialGradient id="r" cx="117.1" cy="1374.43" r="3.93" gradientTransform="matrix(16.82, -0.56, -0.49, -14.96, -1188.99, 20621.41)" xlink:href="#d"/></defs><title>vela-tech-header-logo</title><path d="M140.87,73.28v1.31c0,.47,0,1-.08,1.49h-34A16.18,16.18,0,0,0,108,81.86a14.54,14.54,0,0,0,3.16,4.73,15.24,15.24,0,0,0,4.73,3.21,15.72,15.72,0,0,0,13.9-1,16.13,16.13,0,0,0,5.14-5l4.46,3.51A22.12,22.12,0,0,1,131.27,94a22.66,22.66,0,0,1-9.52,2,21.89,21.89,0,0,1-8.46-1.63,19.75,19.75,0,0,1-6.71-4.51,21.42,21.42,0,0,1-4.43-6.84,22.21,22.21,0,0,1-1.63-8.6,23,23,0,0,1,1.58-8.59,21,21,0,0,1,4.38-6.84,20.07,20.07,0,0,1,6.57-4.51,20.44,20.44,0,0,1,8.16-1.63,20.83,20.83,0,0,1,8.5,1.63,17.5,17.5,0,0,1,6.14,4.38,18.84,18.84,0,0,1,3.73,6.44A23.68,23.68,0,0,1,140.87,73.28Zm-6.05-1.94a14.75,14.75,0,0,0-3.73-9.6c-2.31-2.55-5.6-3.81-9.86-3.81A13.78,13.78,0,0,0,115.7,59a14.73,14.73,0,0,0-7.53,7.28,13.58,13.58,0,0,0-1.31,5Z"/><path d="M153.52,95.89h-6V29.6h6Z"/><path d="M188.47,68.46q0-5.31-2.8-7.91c-1.87-1.74-4.6-2.61-8.15-2.61a17.82,17.82,0,0,0-6.84,1.31,16.15,16.15,0,0,0-5.34,3.51L162,58.82a19.44,19.44,0,0,1,6.71-4.21A25.23,25.23,0,0,1,178.14,53a20.16,20.16,0,0,1,6.22.92,14.7,14.7,0,0,1,5.08,2.76,12.52,12.52,0,0,1,3.42,4.66,16.38,16.38,0,0,1,1.23,6.56v18c0,1.58,0,3.22.17,4.91a51.66,51.66,0,0,0,.53,5.17h-5.35c-.17-1-.32-2.94-.44-4.13a33.4,33.4,0,0,1-.17-3.41h-.18a17.3,17.3,0,0,1-6.36,5.92,20,20,0,0,1-13.41,1.14,13.74,13.74,0,0,1-4.56-2.15,12.21,12.21,0,0,1-3.42-3.87,11.42,11.42,0,0,1-1.36-5.81A11.07,11.07,0,0,1,162,76.06a14.54,14.54,0,0,1,6.44-4.14,37.82,37.82,0,0,1,9.25-1.76c3.47-.26,7.08-.4,10.82-.4V68.47Zm-1.75,6.05q-3.67,0-7.41.3A32.22,32.22,0,0,0,172.56,76a12.59,12.59,0,0,0-4.95,2.68,5.94,5.94,0,0,0-1.93,4.65,7.45,7.45,0,0,0,.83,3.68,6.62,6.62,0,0,0,2.23,2.41,9.28,9.28,0,0,0,3.11,1.31,14.94,14.94,0,0,0,3.46.4,13.51,13.51,0,0,0,5.61-1.1,11.76,11.76,0,0,0,4.13-3,13.26,13.26,0,0,0,2.54-4.34,15.42,15.42,0,0,0,.87-5.17V74.52h-1.74Z"/><path class="a" d="M77.51,75.89c-1.76-.72-3.84-1.45-6.27-2.18l4.19,7.78Z"/><path class="b" d="M69.83,96.93l.14-.45,1-2.9c-.56.94-1.12,1.92-1.69,2.87Z"/><path class="c" d="M77,76.5c-1.71-.66-3.71-1.34-6-2l4.09,7.41Z"/><path class="d" d="M0,35l2,1.8C28.48,27,72.19,12,100.73,9L103,2.47A738.64,738.64,0,0,0,0,35Z"/><path class="e" d="M7.41,41.55c22.74-7.83,61.81-20.15,90-23l2.43-6.93c-15.63,2.7-50.38,10.08-94.72,27.9Z"/><path class="f" d="M13.47,46.93c19.6-6.16,53.39-15.82,80.46-18.59l2.65-7.56c-15,1.8-44.68,7.28-85.71,23.85Z"/><path class="g" d="M17.84,50.8c18.44-5.13,50.52-13.13,73-13.59l2.32-6.63c-13.73,1.19-40,5.17-77.57,18.21Z"/><path class="h" d="M20.51,53.17l2.35,2.08c7.19-1.63,16.71-3.6,27-5.17l-2.3-4.27C39.5,47.65,30.5,50,20.51,53.17Z"/><path class="i" d="M57,49.08a193.54,193.54,0,0,1,30.33-1.82L89.8,40.1a194.11,194.11,0,0,0-35.45,4.26Z"/><path class="j" d="M83.94,56.74l2.29-6.5a168.34,168.34,0,0,0-28,1.08l2.39,4.33A135,135,0,0,1,83.94,56.74Z"/><path class="k" d="M25.49,57.59l2.09,1.86a228.6,228.6,0,0,1,25.54-3.4l-2-3.77A245.28,245.28,0,0,0,25.49,57.59Z"/><path class="l" d="M30.19,61.75,32,63.39a207,207,0,0,1,24.12-1.74l-1.72-3.19C47.47,59,39.43,60.06,30.19,61.75Z"/><path class="m" d="M81.22,64.5,83.16,59a111.36,111.36,0,0,0-21.28-1L64,61.84A73.36,73.36,0,0,1,81.22,64.5Z"/><path class="n" d="M34.64,65.72l2.3,2a160.75,160.75,0,0,1,23.21,1.32l-2.68-5A163.13,163.13,0,0,0,34.64,65.72Z"/><path class="o" d="M78.09,73.39l2.28-6.49a75,75,0,0,0-15-2.48l3.44,6.23A68,68,0,0,1,78.09,73.39Z"/><path class="p" d="M40.19,70.64l3.65,3.24a94.13,94.13,0,0,1,21.48,4.77L62,72.47A128.15,128.15,0,0,0,40.19,70.64Z"/><path class="q" d="M47.3,77,52,81.09a73.14,73.14,0,0,1,19.57,9.1L67.44,82.6A70.94,70.94,0,0,0,47.3,77Z"/><path class="r" d="M69.3,96.46c.57-.95,1.14-1.92,1.69-2.87l.22-.63a71.89,71.89,0,0,0-13.47-6.75Z"/><path d="M110.81,1.81,82.1,85.07l-21.48-42-6.43,1.16L83.12,96.46,117.66,0Z"/><path class="s" d="M81.78,111.72a1.43,1.43,0,0,0,.37.83,2.46,2.46,0,0,0,1.77.5,4.56,4.56,0,0,0,1.22-.13c.58-.16.89-.47.89-.94a.67.67,0,0,0-.44-.62,5.49,5.49,0,0,0-1.37-.39l-1.07-.2a7,7,0,0,1-2.16-.62,1.87,1.87,0,0,1-1-1.76,2.18,2.18,0,0,1,1-1.82,4.87,4.87,0,0,1,2.88-.72,5.1,5.1,0,0,1,2.7.68,2.28,2.28,0,0,1,1.17,2h-2a1.17,1.17,0,0,0-.8-1,3.19,3.19,0,0,0-1.22-.2,2.78,2.78,0,0,0-1.31.27.81.81,0,0,0-.49.74.68.68,0,0,0,.47.65,6.83,6.83,0,0,0,1.31.34l1.74.34a5,5,0,0,1,1.7.59,1.88,1.88,0,0,1,.89,1.66,2.19,2.19,0,0,1-1,1.84,5.13,5.13,0,0,1-3,.74A5.68,5.68,0,0,1,81,113.7a2.26,2.26,0,0,1-1.13-2h2Z"/><path class="s" d="M102.56,113.51a6,6,0,0,1-6.48,0,4,4,0,0,1-1.51-3.36,3.9,3.9,0,0,1,1.51-3.35,6,6,0,0,1,6.48,0,3.92,3.92,0,0,1,1.49,3.35A4,4,0,0,1,102.56,113.51Zm-1.29-1.24a3.44,3.44,0,0,0,0-4.23,2.54,2.54,0,0,0-2-.75,2.63,2.63,0,0,0-2,.75,3.41,3.41,0,0,0,0,4.23,2.68,2.68,0,0,0,2,.75A2.63,2.63,0,0,0,101.27,112.27Z"/><path class="s" d="M111.13,106.11h7.05v1.42h-5v1.88h4.39v1.41h-4.39v3.41h-2.06v-8.12Z"/><path class="s" d="M132.2,106.1v1.44h-2.95v6.68h-2.08v-6.68h-3V106.1Z"/><path class="s" d="M140.25,106.1l1.31,4.65.28,1.29.28-1.27,1.12-4.69h2.18l1.18,4.65.3,1.3.3-1.25,1.32-4.71h2.11l-2.79,8.14h-2l-1.19-4.76-.35-1.56-.35,1.56-1.19,4.76h-1.92l-2.8-8.14h2.19Z"/><path class="s" d="M159.45,106.1h2.33l3.5,8.14H163l-.65-1.68h-3.65l-.66,1.68H155.9Zm-.15,5.06h2.53l-1.25-3.2Z"/><path class="s" d="M178.37,106.31a2.3,2.3,0,0,1,.93.57,2.78,2.78,0,0,1,.5.68,2.1,2.1,0,0,1,.19.85,2.18,2.18,0,0,1-.35,1.14,2,2,0,0,1-1.17.79,1.83,1.83,0,0,1,1,.65,2.35,2.35,0,0,1,.28,1.27v.55a3.88,3.88,0,0,0,0,.76.76.76,0,0,0,.39.47v.21h-2.28a4.35,4.35,0,0,1-.13-.43,2.8,2.8,0,0,1-.09-.7l0-.76a1.34,1.34,0,0,0-.32-1,2,2,0,0,0-1.19-.26h-2v3.19h-2v-8.14h4.73A4.79,4.79,0,0,1,178.37,106.31Zm-4.26,1.2v2.19h2.22a3,3,0,0,0,1-.13.9.9,0,0,0,.59-.91,1,1,0,0,0-.58-1,2.36,2.36,0,0,0-1-.14h-2.27Z"/><path class="s" d="M194.76,107.54h-5.23v1.73h4.8v1.41h-4.8v2.09H195v1.46h-7.49V106.1h7.25v1.44Z"/></svg>